<svg width="407" height="569" viewBox="0 0 407 569" fill="none" xmlns="http://www.w3.org/2000/svg">
<path d="M292.676 85.2162C292.51 85.7528 292.197 86.2307 291.775 86.5947C291.352 86.9587 290.836 87.1939 290.288 87.2731C289.739 87.3523 289.179 87.2722 288.673 87.0422C288.167 86.8121 287.735 86.4414 287.428 85.973L286.899 85.265C283.72 81.1406 279.984 77.4912 275.802 74.4244C271.263 71.0441 266.429 68.0937 261.359 65.6102C255.993 62.8583 250.48 60.4129 244.845 58.2855C244.322 58.0758 243.869 57.7181 243.541 57.255C243.212 56.7919 243.022 56.2428 242.992 55.673L241.403 25.3485C241.366 24.8469 241.459 24.3442 241.675 23.8911C241.89 23.438 242.22 23.0507 242.63 22.7682C243.04 22.4858 243.517 22.3183 244.012 22.2826C244.506 22.2469 245.002 22.3443 245.447 22.5651L295.083 48.0308C295.533 48.2593 295.914 48.6068 296.185 49.0365C296.456 49.4663 296.608 49.9624 296.624 50.4724C296.624 52.2547 296.624 54.4033 296.624 56.8449C296.506 62.0595 296.072 67.2618 295.324 72.4223C294.698 76.7374 293.813 81.0099 292.676 85.2162Z" fill="url(#paint0_linear_3205_68348)"/>
<path d="M230.563 51.5154C231.004 51.6663 231.474 51.7038 231.932 51.6245C232.39 51.5453 232.821 51.3518 233.188 51.0614C233.554 50.771 233.844 50.3928 234.032 49.9605C234.219 49.5282 234.298 49.0554 234.262 48.5844C234.262 46.3373 234.046 44.0902 233.926 41.8186C233.888 41.2983 233.715 40.7977 233.424 40.3683C233.132 39.9389 232.734 39.5964 232.269 39.3761L201.694 25.1851C201.251 24.9862 200.766 24.907 200.284 24.9551C199.803 25.0031 199.341 25.1768 198.945 25.4593C198.549 25.7419 198.231 26.1236 198.023 26.5677C197.814 27.0117 197.722 27.503 197.755 27.994L198.548 38.1304C198.599 38.6767 198.802 39.1967 199.134 39.6294C199.466 40.0621 199.913 40.3894 200.421 40.5729C210.461 44.2856 220.524 47.8761 230.563 51.5154Z" fill="url(#paint1_linear_3205_68348)"/>
<path d="M230.097 20.6194C230.534 20.8512 230.903 21.195 231.167 21.6163C231.43 22.0376 231.579 22.5214 231.597 23.019C231.61 23.4784 231.508 23.9338 231.301 24.3431C231.093 24.7523 230.786 25.1022 230.409 25.3605C230.032 25.6188 229.596 25.7771 229.142 25.8208C228.688 25.8645 228.23 25.7921 227.811 25.6105L205.906 16.0123C205.471 15.8124 205.092 15.5055 204.805 15.1197C204.518 14.734 204.332 14.2819 204.263 13.8047C204.263 13.2768 204.097 12.7249 204.025 12.197C203.937 11.6864 203.991 11.1612 204.181 10.6796C204.37 10.1979 204.689 9.77862 205.1 9.46808C205.512 9.15754 206.001 8.9679 206.513 8.92015C207.025 8.8724 207.54 8.96842 208.001 9.19756L230.097 20.6194Z" fill="url(#paint2_linear_3205_68348)"/>
<path d="M293.404 36.2107C293.841 36.4358 294.328 36.5426 294.818 36.521C295.308 36.4993 295.783 36.3498 296.199 36.087C296.615 35.8241 296.957 35.4569 297.192 35.0208C297.427 34.5848 297.546 34.0946 297.539 33.598V23.1717C297.545 22.623 297.401 22.0835 297.121 21.6134C296.842 21.1432 296.439 20.7611 295.958 20.5096L261.566 2.95999C261.071 2.71928 260.518 2.62756 259.973 2.69574C259.428 2.76392 258.913 2.98913 258.491 3.34463C258.068 3.70014 257.755 4.17102 257.589 4.70139C257.423 5.23176 257.41 5.79935 257.552 6.33681C258.477 10.0094 259.401 13.7313 260.301 17.33C260.404 17.7239 260.584 18.0929 260.83 18.4147C261.077 18.7366 261.385 19.0048 261.736 19.2033L293.404 36.2107Z" fill="url(#paint3_linear_3205_68348)"/>
<path d="M167.296 28.7696C166.785 28.5819 166.337 28.2593 166.004 27.8381C165.671 27.4168 165.465 26.9135 165.409 26.3847L164.821 20.9709C164.756 20.4892 164.822 19.9995 165.011 19.5501C165.201 19.1006 165.507 18.7071 165.901 18.4084C166.294 18.1097 166.761 17.9161 167.255 17.8469C167.748 17.7776 168.252 17.8351 168.716 18.0136L185.866 24.8583C186.363 25.0532 186.794 25.38 187.11 25.8016C187.426 26.2232 187.615 26.7227 187.654 27.2432L187.948 31.7269C187.987 32.1896 187.906 32.6544 187.713 33.0791C187.521 33.5039 187.223 33.8751 186.846 34.1593C186.469 34.4435 186.025 34.6316 185.554 34.7066C185.083 34.7816 184.601 34.7412 184.151 34.5889L167.296 28.7696Z" fill="url(#paint4_linear_3205_68348)"/>
<path d="M186.871 9.43832C186.767 9.41125 186.658 9.40847 186.553 9.43022C186.448 9.45196 186.349 9.49765 186.265 9.56379C186.18 9.62993 186.111 9.71478 186.063 9.81186C186.016 9.90894 185.991 10.0157 185.991 10.124V11.5715C185.996 11.8569 185.932 12.1393 185.805 12.3942C185.678 12.649 185.49 12.8686 185.26 13.0338C185.029 13.199 184.762 13.3048 184.482 13.3421C184.202 13.3793 183.917 13.3469 183.652 13.2475L180.357 11.9524C179.831 11.7591 179.371 11.4168 179.032 10.9665C178.693 10.5162 178.49 9.97682 178.446 9.41292L178.144 5.93383C178.12 5.69964 178.158 5.46318 178.252 5.24806C178.347 5.03295 178.496 4.84672 178.684 4.70793C178.873 4.56915 179.094 4.48266 179.326 4.45715C179.557 4.43163 179.792 4.46797 180.005 4.56251L187.55 8.14317C187.72 8.2341 187.847 8.38953 187.904 8.57527C187.96 8.761 187.942 8.96183 187.852 9.13357C187.761 9.30532 187.608 9.43392 187.424 9.49107C187.24 9.54822 187.041 9.52924 186.871 9.43832Z" fill="url(#paint5_linear_3205_68348)"/>
<path d="M230.528 6.82616C230.53 7.18303 230.441 7.53416 230.268 7.84353C230.096 8.1529 229.847 8.4094 229.547 8.58673C229.248 8.76406 228.908 8.85584 228.562 8.85268C228.217 8.84951 227.878 8.7515 227.581 8.5687L225.205 7.04706C224.853 6.82264 224.552 6.52225 224.322 6.16644C224.092 5.81063 223.94 5.40778 223.875 4.98545C223.875 4.44551 223.732 3.90558 223.637 3.36564C223.547 2.83406 223.604 2.28707 223.801 1.78738C223.999 1.28768 224.328 0.855498 224.752 0.540391C225.176 0.225284 225.678 0.0400113 226.199 0.0057835C226.721 -0.0284443 227.241 0.0897609 227.7 0.346872C227.7 0.346872 250.573 11.942 248.538 12.471C246.502 13 233.26 4.96093 233.26 4.96093C232.962 4.81846 232.634 4.75703 232.307 4.78248C231.98 4.80793 231.664 4.91941 231.39 5.10632C231.116 5.29324 230.893 5.54938 230.742 5.8504C230.591 6.15142 230.517 6.48731 230.528 6.82616Z" fill="url(#paint6_linear_3205_68348)"/>
<path d="M286.311 153.357C286.354 153.909 286.561 154.435 286.903 154.865C287.245 155.296 287.708 155.612 288.23 155.771C288.752 155.93 289.31 155.925 289.829 155.757C290.348 155.589 290.806 155.265 291.141 154.828C292.082 153.381 293.048 151.812 294.014 150.095C297.924 142.998 300.995 135.458 303.165 127.631C305.095 121.194 306.627 114.641 307.753 108.011C308.944 101.94 309.814 95.8079 310.361 89.6422C311.207 79.0199 310.988 68.3378 309.709 57.7604C308.916 49.7187 307.002 33.9994 305.894 33.849C304.786 33.6986 306.671 46.0873 306.546 52.2178C306.504 67.9736 303.851 83.6098 298.698 98.471C297.588 101.586 296.091 105.387 294.086 109.654C293.825 110.167 293.418 110.589 292.918 110.865C292.419 111.141 291.849 111.259 291.283 111.204C290.717 111.149 290.18 110.922 289.741 110.554C289.303 110.186 288.983 109.693 288.823 109.139C288.629 108.551 288.436 107.937 288.219 107.324C286.987 103.573 285.453 99.9307 283.631 96.4354C280.64 91.1428 276.633 86.5142 271.848 82.8244C265.956 77.9195 260.789 75.467 250.913 71.2488C233.769 63.8915 222.783 59.6978 222.783 59.6978C213.124 55.9946 203.248 52.3405 189.388 47.4356C181.444 44.6888 172.124 41.5497 161.62 38.2389C161.249 38.1379 160.855 38.1646 160.501 38.3149C160.146 38.4653 159.85 38.7307 159.66 39.0698C159.47 39.4088 159.395 39.8024 159.448 40.189C159.502 40.5756 159.679 40.9333 159.954 41.2064C165.918 45.7924 171.327 47.5091 178.933 50.0597C184.849 52.0462 190.692 54.2043 196.608 56.1908C208.119 59.9626 219.285 64.7467 229.978 70.4886C240.217 76.0079 249.87 82.5823 258.785 90.1081C262.882 93.2977 266.608 96.9509 269.892 100.997C276.532 109.605 278.898 117.943 281.675 128.219C283.897 136.455 285.448 144.863 286.311 153.357Z" fill="url(#paint7_linear_3205_68348)"/>
<path d="M260.625 212.349C260.406 212.959 260.383 213.623 260.56 214.246C260.738 214.869 261.106 215.42 261.611 215.817C262.117 216.215 262.734 216.44 263.374 216.46C264.014 216.479 264.644 216.293 265.172 215.926C267.591 214.138 270.01 212.104 272.791 209.899C289.214 196.644 297.438 190.028 304.235 181.355C311.175 172.292 316.698 162.202 320.609 151.439C325.27 139.435 328.36 126.865 329.8 114.049C331.283 103.93 331.721 93.6824 331.106 83.4715C330.531 74.0412 328.991 64.697 326.511 55.5888C325.236 51.0012 323.718 46.4863 321.964 42.064C320.73 39.0013 316.812 40.4224 317.296 43.7056C317.284 43.8197 317.284 43.9346 317.296 44.0486C319.545 59.8031 322.399 79.5758 319.255 103.171C317.368 117.357 313.909 141.368 296.978 164.424C292.699 170.295 287.836 175.705 282.466 180.571C282.041 180.921 281.523 181.136 280.978 181.189C280.433 181.241 279.884 181.13 279.401 180.868C278.918 180.607 278.522 180.206 278.262 179.717C278.003 179.229 277.892 178.673 277.943 178.121C278.287 172.214 278.336 166.293 278.088 160.382C277.846 148.85 276.039 137.407 272.719 126.374C271.022 120.106 268.37 114.146 264.858 108.708C261.473 104.116 257.504 99.9972 253.055 96.4573C244.554 88.8493 235.085 82.43 224.901 77.3706C221.732 75.8025 216 73.5974 204.584 69.2116C194.909 65.4629 192.49 64.7769 182.815 61.0526C175.649 58.5525 168.645 55.5983 161.845 52.2076C154.193 47.4452 147.335 41.4824 141.528 34.5421C138.107 30.7973 134.924 26.8364 131.998 22.6834C130.305 20.2332 126.871 21.4828 127.451 24.374L127.741 25.697C129.094 32.0958 131.783 38.1273 135.626 43.3871C138.045 46.5233 140.609 49.0224 148.083 54.2412C156.691 60.249 165.667 65.6992 174.955 70.5592C182.573 74.651 186.516 76.6111 198.537 82.81C216.992 92.292 226.28 97.0698 229.351 99.1279C238.421 105.229 248.58 112.04 256.247 124.291C265.245 138.673 265.922 152.958 266.72 165.061C267.619 181.071 265.552 197.11 260.625 212.349Z" fill="url(#paint8_linear_3205_68348)"/>
<path d="M205.74 100.037C206.098 99.4923 206.642 99.1046 207.265 98.9495C207.887 98.7945 208.543 98.8832 209.105 99.1984C211.221 100.308 213.913 101.664 216.846 103.588C224.289 107.851 231.281 112.892 237.713 118.63C241.093 121.464 244.15 124.683 246.824 128.223C250.488 133.341 253.157 139.134 254.685 145.287C254.778 145.647 254.799 146.022 254.747 146.39C254.695 146.758 254.571 147.112 254.382 147.43C254.194 147.748 253.944 148.023 253.649 148.24C253.354 148.456 253.02 148.609 252.666 148.69C251.536 148.937 250.262 149.183 248.771 149.43C239.267 151.115 229.533 150.881 220.116 148.739C213.962 147.211 210.5 146.273 207.086 143.265C202.921 139.284 200.171 133.99 199.273 128.223C196.725 115.548 202.687 104.747 205.74 100.037Z" fill="url(#paint9_linear_3205_68348)"/>
<path d="M253.849 157.84C254.278 157.736 254.725 157.732 255.156 157.829C255.587 157.926 255.99 158.122 256.336 158.401C256.682 158.68 256.962 159.035 257.153 159.439C257.345 159.844 257.444 160.287 257.443 160.736V168.028C257.45 168.574 257.301 169.111 257.014 169.573C256.727 170.035 256.315 170.402 255.827 170.63C254.983 171.023 253.994 171.465 252.86 171.907C247.42 173.976 241.749 175.353 235.977 176.007C230.144 177.091 224.245 177.771 218.321 178.044C214.169 178.315 209.999 178.084 205.9 177.357C197.07 175.351 189.075 170.588 183.035 163.732C178.68 158.784 175.343 152.999 173.218 146.718C170.763 139.953 169.442 132.816 169.311 125.605C169.091 119.446 169.527 113.28 170.613 107.217C171.917 99.6824 174.137 92.3427 177.222 85.3668C177.373 85.0193 177.593 84.7074 177.869 84.4509C178.145 84.1944 178.469 83.9989 178.823 83.8766C179.177 83.7544 179.551 83.708 179.923 83.7406C180.295 83.7731 180.657 83.8838 180.985 84.0657L195.746 91.9218C196.105 92.1269 196.42 92.4043 196.67 92.7371C196.921 93.0699 197.103 93.451 197.204 93.8575C197.306 94.2639 197.325 94.6871 197.261 95.1014C197.197 95.5156 197.05 95.9122 196.831 96.2672C196.349 97.0528 195.842 97.9366 195.336 98.9186C193.43 102.375 191.893 106.029 190.753 109.819C188.954 116.738 188.954 124.014 190.753 130.932C191.93 136.657 194.408 142.021 197.989 146.595C205.225 155.458 215.451 157.275 224.134 158.871C234.004 160.603 244.118 160.252 253.849 157.84Z" fill="url(#paint10_linear_3205_68348)"/>
<path d="M227.081 192.302C226.734 191.977 226.48 191.562 226.347 191.1C226.214 190.639 226.207 190.15 226.327 189.685C226.447 189.22 226.688 188.797 227.026 188.462C227.364 188.126 227.786 187.891 228.245 187.782C232.67 187.456 237.063 186.77 241.381 185.731C244.556 185.04 248.458 184.076 252.966 182.718C253.382 182.595 253.821 182.572 254.247 182.653C254.673 182.733 255.075 182.913 255.421 183.179C255.767 183.445 256.047 183.79 256.24 184.186C256.432 184.582 256.531 185.018 256.529 185.46C256.529 186.003 256.529 186.547 256.529 187.09C256.204 195.624 254.501 204.046 251.488 212.015C251.285 212.507 250.952 212.931 250.527 213.242C250.102 213.552 249.6 213.737 249.079 213.775C248.557 213.814 248.035 213.704 247.57 213.459C247.106 213.214 246.717 212.842 246.446 212.386C245.097 210.276 243.641 208.24 242.084 206.284C237.774 200.907 232.721 196.197 227.081 192.302Z" fill="url(#paint11_linear_3205_68348)"/>
<path d="M320.04 183.293C319.951 182.741 319.701 182.229 319.322 181.822C318.943 181.415 318.452 181.132 317.913 181.008C317.374 180.885 316.811 180.928 316.295 181.13C315.78 181.333 315.337 181.687 315.022 182.146C312.85 185.148 310.196 188.564 307.06 192.175C299.937 200.149 292.058 207.398 283.537 213.818C275.141 220.504 264.236 228.898 250.846 238.219C250.318 238.557 249.681 238.674 249.069 238.547C248.457 238.419 247.918 238.057 247.565 237.535C246.624 235.998 245.804 234.51 245.153 233.07C245.063 232.893 244.998 232.704 244.96 232.509C243.761 228.12 242.026 223.898 239.797 219.943C235.293 212.438 229.275 205.977 222.136 200.984C215.065 195.726 207.64 190.973 199.916 186.758C195.641 184.513 191.493 182.028 187.491 179.316C181.524 174.94 176.231 169.694 171.785 163.749C168.164 159.293 165.295 154.264 163.293 148.864C161.845 144.71 160.961 140.376 160.663 135.981C159.963 127.423 159.963 118.821 160.663 110.263C160.9 106.855 161.344 103.465 161.99 100.112C163.244 93.8131 165.355 87.7201 168.263 82.0072C168.453 81.6414 168.57 81.2407 168.605 80.8287C168.64 80.4168 168.593 80.0019 168.467 79.6085C168.341 79.2152 168.139 78.8512 167.872 78.5382C167.604 78.2252 167.278 77.9694 166.912 77.7859C165.271 77.0295 163.389 76.1267 161.315 75.0531C154.649 71.8366 148.299 67.9885 142.351 63.5605C139.035 60.9935 135.892 58.2057 132.942 55.2155C132.661 54.9105 132.314 54.674 131.929 54.5241C131.544 54.3741 131.13 54.3145 130.719 54.3497C130.308 54.3849 129.91 54.5141 129.555 54.7275C129.201 54.9409 128.899 55.2329 128.672 55.5816C126.561 58.9556 124.79 62.5361 123.388 66.2689C121.194 72.5601 119.878 79.1302 119.48 85.7892C118.403 93.8759 118.185 102.056 118.829 110.19C119.793 120.204 122.232 130.015 126.066 139.299C132.146 155.111 139.77 165.505 148.938 177.876C156.018 187.367 163.664 196.412 171.833 204.961C193.547 227.897 214.175 243.318 250.943 270.622C256.685 274.892 261.558 278.43 265.032 280.968C265.5 281.308 266.061 281.49 266.637 281.49C267.213 281.49 267.774 281.308 268.241 280.968C274.635 276.283 279.798 271.989 283.634 268.621C292.171 261.198 300.05 253.034 307.181 244.221C309.62 241.258 311.808 238.09 313.719 234.754C316.249 230.273 318.227 225.496 319.606 220.528C320.987 214.771 321.644 208.86 321.56 202.936C321.603 196.356 321.095 189.785 320.04 183.293Z" fill="url(#paint12_linear_3205_68348)"/>
<path d="M331.107 206.402C331.252 203.149 335.965 201.755 337.326 204.739C337.86 205.986 338.346 207.184 338.783 208.26C341.216 213.682 342.986 219.381 344.055 225.231C344.628 229.05 344.847 232.914 344.711 236.774C344.852 242.535 343.963 248.276 342.087 253.721C341.212 256.091 340.105 258.368 338.783 260.519C334.259 268.758 329.203 276.69 323.648 284.264C317.32 292.728 310.429 300.752 303.023 308.278C302.542 308.768 301.897 309.059 301.214 309.095C300.531 309.132 299.859 308.91 299.33 308.474L277.296 290.769C276.941 290.485 276.655 290.124 276.458 289.713C276.262 289.303 276.16 288.853 276.16 288.397C276.16 287.941 276.262 287.491 276.458 287.08C276.655 286.669 276.941 286.309 277.296 286.025C279.482 284.411 281.984 282.454 284.584 280.18C291.558 274.28 298.155 267.942 304.335 261.204C313.882 251.006 318.644 245.92 322.118 239.488C325.025 233.906 327.236 227.984 328.701 221.857C329.995 216.795 330.8 211.619 331.107 206.402Z" fill="url(#paint13_linear_3205_68348)"/>
<path d="M348.821 210.876C347.779 207.821 351.365 205.182 353.401 207.626C355.705 210.405 357.857 213.309 359.847 216.325C365.148 223.638 368.946 231.946 371.018 240.76C371.971 245.446 372.41 250.224 372.326 255.006C372.288 265.344 370.736 275.62 367.722 285.502C361.131 308.447 349.087 331.709 343.756 341.508C343.559 341.871 343.284 342.186 342.951 342.428C342.618 342.671 342.236 342.835 341.832 342.91C341.428 342.985 341.013 342.968 340.616 342.861C340.22 342.754 339.852 342.559 339.539 342.29L311.017 318.05C310.712 317.787 310.463 317.463 310.285 317.099C310.108 316.736 310.006 316.339 309.985 315.935C309.965 315.53 310.027 315.125 310.167 314.745C310.306 314.365 310.522 314.018 310.799 313.725C317.633 306.394 322.916 300.016 327.011 295.007C335.686 284.011 342.375 275.459 348.021 262.459C350.263 257.68 352.025 252.687 353.279 247.553C354.593 239.187 354.139 230.635 351.947 222.458C351.15 218.534 350.105 214.666 348.821 210.876Z" fill="url(#paint14_linear_3205_68348)"/>
<path d="M116.692 154.407C116.683 153.739 116.899 153.088 117.304 152.561C117.71 152.034 118.281 151.663 118.923 151.509C119.565 151.355 120.24 151.427 120.836 151.714C121.432 152.001 121.913 152.485 122.2 153.086C123.771 156.29 125.559 159.714 127.588 163.285C135.288 176.767 144.514 189.293 155.081 200.61C167.402 214.16 184.072 230.45 215.31 255.57C234.999 271.395 254.303 285.728 279.476 304.488C291.556 313.489 304.191 322.734 320.74 337.067C331.707 346.247 341.994 356.229 351.519 366.932C360.632 377.18 368.724 388.314 375.678 400.172C388.096 421.867 391.913 440.334 398.581 474.136C401.166 487.148 403.993 503.805 406.191 523.47C406.228 523.931 406.101 524.389 405.833 524.763C405.565 525.137 405.173 525.401 404.729 525.508C404.284 525.614 403.817 525.556 403.412 525.344C403.006 525.132 402.69 524.779 402.519 524.35C397.373 510.888 391.042 497.922 383.602 485.607C378.218 476.499 372.084 467.867 365.265 459.803C360.519 454.332 355.487 449.123 350.19 444.198C339.154 433.639 327.573 423.679 315.498 414.358C306.051 407.02 302.693 404.574 287.352 393.323C266.31 377.743 250.703 365.758 241.45 358.714C210.164 334.695 199.92 325.841 195.548 322.025C185.8 313.837 176.607 304.996 168.03 295.56C158.705 285.479 150.595 274.313 143.871 262.296C135.73 247.425 132.154 235.024 127.491 218.881C124.182 207.517 121.56 195.959 119.64 184.271C118.107 174.38 117.123 164.41 116.692 154.407Z" fill="url(#paint15_linear_3205_68348)"/>
<path d="M103.32 115.42C103.626 114.873 104.108 114.449 104.686 114.218C105.264 113.988 105.903 113.965 106.495 114.154C107.088 114.344 107.598 114.733 107.94 115.257C108.283 115.782 108.436 116.409 108.376 117.034C108.206 122.683 108.085 129.262 108.11 136.354C107.796 151.298 108.45 166.248 110.069 181.106C111.495 192.774 113.685 204.334 116.624 215.71C120.723 233.444 127.116 250.555 135.636 266.601C144.827 283.352 154.285 293.966 164.468 305.264C180.844 323.41 195.55 335.662 215.626 351.411C239.815 370.412 259.286 384.669 293.633 409.76C293.633 409.76 330.109 436.416 357.877 465.395C362.391 470.047 366.555 475.034 370.334 480.313C371.834 482.416 377.18 490.095 386.057 508.803C387.508 511.884 389.129 515.381 390.894 519.294C391.862 521.471 387.774 524.014 386.057 522.376C382.622 518.976 375.632 512.594 353.935 501.344C343.872 496.062 343.098 496.233 332.963 491.146C317.362 483.345 306.09 476.474 294.94 469.455C278.975 459.526 267.51 451.407 257.569 444.34C238.678 430.914 223.705 419.127 213.643 411.105C193.648 395.562 174.579 378.838 156.534 361.022C145.924 350.48 135.864 339.387 126.396 327.787C114.786 313.334 106.368 302.868 98.1925 286.385C91.4315 272.594 86.3706 258.015 83.1232 242.977C80.6445 232.741 79.1061 222.295 78.5275 211.773C78.1102 201.353 78.5471 190.915 79.8336 180.568C83.607 153.276 95.4108 129.237 103.32 115.42Z" fill="url(#paint16_linear_3205_68348)"/>
<path d="M99.9609 89.079C100.404 88.5735 101.021 88.2588 101.686 88.1996C102.351 88.1405 103.014 88.3414 103.537 88.761C104.06 89.1806 104.404 89.7871 104.499 90.4556C104.594 91.1242 104.432 91.8041 104.046 92.3554C102.91 94.8005 101.629 97.2456 100.444 99.8619C96.5284 108.175 95.779 110.302 87.3428 129.692C77.3353 152.774 76.586 153.874 74.8939 159.547C72.2285 168.611 70.4792 177.926 69.6726 187.348C68.4543 200.225 68.6732 213.201 70.3252 226.029C71.3779 236.588 73.3681 247.03 76.2717 257.228C79.7661 268.955 84.3722 280.312 90.0259 291.142C96.5677 303.593 104.248 315.398 112.966 326.4C124.185 341.076 136.441 354.91 149.636 367.796C163.897 382.148 175.331 392.076 185.677 401.025C191.333 405.915 207.432 419.705 229.575 436.283C253.626 454.352 272.747 466.676 279.37 470.906C287.13 475.796 293.874 479.928 299.119 483.131C299.5 483.351 299.825 483.658 300.068 484.027C300.311 484.397 300.467 484.818 300.521 485.258C300.69 486.579 300.835 487.923 300.98 489.244C303.592 515.177 301.069 541.377 293.559 566.313C293.378 566.879 293.029 567.374 292.561 567.733C292.093 568.092 291.527 568.297 290.94 568.321C290.353 568.345 289.773 568.186 289.277 567.867C288.782 567.547 288.395 567.082 288.169 566.533C286.767 563.281 285.147 559.883 283.334 556.411C277.21 545.333 269.73 535.081 261.071 525.896C249.928 513.328 241.975 505.724 232.886 496.726C222.008 485.918 213.548 477.165 196.869 459.414C179.247 440.831 164.26 425.036 146.421 403.788C135.616 390.902 121.329 373.811 104.481 349.506C90.6836 329.569 78.2151 308.723 67.1586 287.108C54.4565 264.352 47.9034 238.614 48.1589 212.483C47.8401 200.171 48.9352 187.863 51.4222 175.807C55.8522 155.67 64.0579 136.58 75.5949 119.569C82.653 108.581 90.8186 98.3631 99.9609 89.079Z" fill="url(#paint17_linear_3205_68348)"/>
<path d="M88.0751 89.0774C89.5005 92.4998 56.2958 129.286 48.0038 153.617C39.7118 177.947 37.0588 203.878 40.2495 229.409C44.5291 268.708 60.197 295.689 77.6057 325.7C91.8711 350.287 104.952 366.661 124.778 391.467C145.04 416.811 166.269 439.711 182.445 457.234C191.488 467.009 199.37 475.197 204.955 481.184C205.291 481.534 205.536 481.963 205.667 482.433C205.798 482.902 205.811 483.397 205.705 483.873C204.641 488.761 203.456 493.648 202.102 498.536C196.899 517.74 189.896 536.399 181.188 554.258C180.944 554.784 180.544 555.218 180.042 555.5C179.541 555.783 178.964 555.898 178.394 555.831C177.824 555.763 177.29 555.516 176.867 555.124C176.444 554.732 176.154 554.215 176.037 553.647C174.587 547.953 172.773 540.988 170.646 533.118C165.544 514.227 162.981 504.768 160.152 497.852C155.316 486.023 149.949 477.763 139.189 461.193C131.476 449.364 129.203 446.994 118.879 432.037C108.216 416.591 100.721 404.689 95.2804 396.111C80.7731 373.26 72.4072 359.842 62.5181 340.511C54.4028 324.645 47.1859 308.325 40.9023 291.632C35.3752 278.016 30.9914 263.955 27.7974 249.596C24.4381 235.85 22.8934 221.715 23.2035 207.56C24.049 189.731 28.2763 172.233 35.6555 156.017C47.235 129.575 86.6497 85.655 88.0751 89.0774Z" fill="url(#paint18_linear_3205_68348)"/>
<path d="M62.7211 93.9569C64.9351 92.3908 67.0769 95.5719 65.1276 97.505C54.4478 108.339 45.047 120.403 37.1157 133.452C29.0184 146.485 22.8707 160.669 18.8742 175.54C13.7847 195.706 12.6724 216.697 15.6014 237.303C17.2378 249.22 19.7406 257.246 24.7221 273.274C31.404 294.711 39.6906 315.596 49.5093 335.746C59.1354 355.664 68.0636 369.882 85.3906 397.508C98.8671 419.042 110.779 436.832 119.732 449.874C120.003 450.264 120.175 450.716 120.234 451.19C120.292 451.663 120.236 452.144 120.069 452.59C118.32 457.484 116.322 462.435 114.076 467.444C106.123 485.321 96.0014 502.115 83.9467 517.436C83.5465 517.902 83.0116 518.228 82.4184 518.367C81.8253 518.506 81.2041 518.451 80.6436 518.209C80.0832 517.968 79.6121 517.552 79.2977 517.022C78.9833 516.492 78.8417 515.875 78.893 515.258C79.3631 505.156 78.693 495.033 76.8955 485.087C75.211 475.788 71.4087 465.192 63.8522 444.368C59.0391 430.788 57.4508 427.435 50.8088 409.743C44.7925 393.691 40.918 383.316 36.3697 370.371C26.7436 341.961 20.7273 320.305 19.524 315.387C14.9276 298.258 11.7509 284.285 9.72946 274.644C4.91641 251.642 2.50989 240.141 1.23443 224.431C-0.0891573 206.886 -1.1721 193.844 2.55801 177.571C7.73204 154.276 19.1871 138.786 27.3211 128.019C37.3165 114.871 49.2587 103.38 62.7211 93.9569Z" fill="url(#paint19_linear_3205_68348)"/>
<defs>
<linearGradient id="paint0_linear_3205_68348" x1="268.812" y1="-40.3612" x2="268.812" y2="280.786" gradientUnits="userSpaceOnUse">
<stop stop-color="#0061D2"/>
<stop offset="1" stop-color="#00E6D8" stop-opacity="0.8"/>
</linearGradient>
<linearGradient id="paint1_linear_3205_68348" x1="215.879" y1="-0.799677" x2="215.879" y2="131.179" gradientUnits="userSpaceOnUse">
<stop stop-color="#0061D2"/>
<stop offset="1" stop-color="#00E6D8" stop-opacity="0.8"/>
</linearGradient>
<linearGradient id="paint2_linear_3205_68348" x1="217.692" y1="-7.39448" x2="217.692" y2="76.1917" gradientUnits="userSpaceOnUse">
<stop stop-color="#0061D2"/>
<stop offset="1" stop-color="#00E6D8" stop-opacity="0.8"/>
</linearGradient>
<linearGradient id="paint3_linear_3205_68348" x1="277.353" y1="-29.9315" x2="277.353" y2="137.241" gradientUnits="userSpaceOnUse">
<stop stop-color="#0061D2"/>
<stop offset="1" stop-color="#00E6D8" stop-opacity="0.8"/>
</linearGradient>
<linearGradient id="paint4_linear_3205_68348" x1="176.294" y1="1.51567" x2="176.294" y2="85.1019" gradientUnits="userSpaceOnUse">
<stop stop-color="#0061D2"/>
<stop offset="1" stop-color="#00E6D8" stop-opacity="0.8"/>
</linearGradient>
<linearGradient id="paint5_linear_3205_68348" x1="183.001" y1="-4.13114" x2="183.001" y2="39.8616" gradientUnits="userSpaceOnUse">
<stop stop-color="#0061D2"/>
<stop offset="1" stop-color="#00E6D8" stop-opacity="0.8"/>
</linearGradient>
<linearGradient id="paint6_linear_3205_68348" x1="235.978" y1="-12.0125" x2="235.978" y2="49.5773" gradientUnits="userSpaceOnUse">
<stop stop-color="#0061D2"/>
<stop offset="1" stop-color="#00E6D8" stop-opacity="0.8"/>
</linearGradient>
<linearGradient id="paint7_linear_3205_68348" x1="235.534" y1="-102.432" x2="235.534" y2="441.691" gradientUnits="userSpaceOnUse">
<stop stop-color="#0061D2"/>
<stop offset="0.923476" stop-color="#00E6D8" stop-opacity="0.8"/>
</linearGradient>
<linearGradient id="paint8_linear_3205_68348" x1="229.823" y1="-22.3205" x2="229.432" y2="427.22" gradientUnits="userSpaceOnUse">
<stop stop-color="#0061D2"/>
<stop offset="0.690081" stop-color="#00E6D8" stop-opacity="0.8"/>
<stop offset="1" stop-color="#00E6D8" stop-opacity="0.8"/>
</linearGradient>
<linearGradient id="paint9_linear_3205_68348" x1="226.807" y1="-34.202" x2="226.502" y2="304.267" gradientUnits="userSpaceOnUse">
<stop stop-color="#0061D2"/>
<stop offset="0.986484" stop-color="#00E6D8" stop-opacity="0.8"/>
</linearGradient>
<linearGradient id="paint10_linear_3205_68348" x1="213.58" y1="-7.46666" x2="213.58" y2="558.333" gradientUnits="userSpaceOnUse">
<stop stop-color="#0061D2"/>
<stop offset="0.562768" stop-color="#00E6D8" stop-opacity="0.8"/>
</linearGradient>
<linearGradient id="paint11_linear_3205_68348" x1="241.333" y1="6.83341" x2="241.276" y2="306.549" gradientUnits="userSpaceOnUse">
<stop stop-color="#0061D2"/>
<stop offset="0.824748" stop-color="#00E6D8" stop-opacity="0.8"/>
</linearGradient>
<linearGradient id="paint12_linear_3205_68348" x1="220.457" y1="3.45693" x2="219.752" y2="466.951" gradientUnits="userSpaceOnUse">
<stop offset="0.0252937" stop-color="#0061D2"/>
<stop offset="0.658908" stop-color="#00E6D8" stop-opacity="0.8"/>
<stop offset="0.991028" stop-color="#00BA37"/>
</linearGradient>
<linearGradient id="paint13_linear_3205_68348" x1="310.337" y1="64.0298" x2="310.337" y2="546.308" gradientUnits="userSpaceOnUse">
<stop offset="0.0252937" stop-color="#0061D2"/>
<stop offset="0.471091" stop-color="#00E6D8" stop-opacity="0.8"/>
<stop offset="0.991028" stop-color="#00BA37"/>
</linearGradient>
<linearGradient id="paint14_linear_3205_68348" x1="341.348" y1="80.203" x2="341.348" y2="545.071" gradientUnits="userSpaceOnUse">
<stop offset="0.0252937" stop-color="#0061D2"/>
<stop offset="0.448285" stop-color="#00E6D8" stop-opacity="0.8"/>
<stop offset="0.991028" stop-color="#00BA37"/>
</linearGradient>
<linearGradient id="paint15_linear_3205_68348" x1="261.31" y1="-6.80744" x2="262.083" y2="574.316" gradientUnits="userSpaceOnUse">
<stop offset="0.0350605" stop-color="#0061D2"/>
<stop offset="0.566925" stop-color="#00E6D8" stop-opacity="0.8"/>
<stop offset="0.991028" stop-color="#00BA37"/>
</linearGradient>
<linearGradient id="paint16_linear_3205_68348" x1="235.385" y1="22.4381" x2="235.385" y2="576.182" gradientUnits="userSpaceOnUse">
<stop offset="0.0252937" stop-color="#0061D2"/>
<stop offset="0.471091" stop-color="#00E6D8" stop-opacity="0.8"/>
<stop offset="0.991028" stop-color="#00BA37"/>
</linearGradient>
<linearGradient id="paint17_linear_3205_68348" x1="175.592" y1="-19.363" x2="175.592" y2="630.894" gradientUnits="userSpaceOnUse">
<stop offset="0.0252937" stop-color="#0061D2"/>
<stop offset="0.471091" stop-color="#00E6D8" stop-opacity="0.8"/>
<stop offset="0.991028" stop-color="#00BA37"/>
</linearGradient>
<linearGradient id="paint18_linear_3205_68348" x1="114.866" y1="-15.4818" x2="114.866" y2="616.679" gradientUnits="userSpaceOnUse">
<stop offset="0.0252937" stop-color="#0061D2"/>
<stop offset="0.471091" stop-color="#00E6D8" stop-opacity="0.8"/>
<stop offset="0.991028" stop-color="#00BA37"/>
</linearGradient>
<linearGradient id="paint19_linear_3205_68348" x1="60.3885" y1="-1.64386" x2="60.3885" y2="573.815" gradientUnits="userSpaceOnUse">
<stop offset="0.0252937" stop-color="#0061D2"/>
<stop offset="0.471091" stop-color="#00E6D8" stop-opacity="0.8"/>
<stop offset="0.991028" stop-color="#00BA37"/>
</linearGradient>
</defs>
</svg>
